
######## ######## ######## ##               ######## ########  ######## ######## 
##       ##       ##       ##               ##       ##     ## ##       ##       
##       ##       ##       ##               ##       ##     ## ##       ##       
######   ######   ######   ##       ####### ######   ########  ######   ######   
##       ##       ##       ##               ##       ##   ##   ##       ##       
##       ##       ##       ##               ##       ##    ##  ##       ##       
##       ######## ######## ########         ##       ##     ## ######## ######## 


Genre:Drama
Language:English
IMDb:http://www.imdb.com/title/tt1575539/
Source:DVD
Subtitles:Romana

Format : AVI
Format/Info : Audio Video Interleave
File size : 1.10 GiB
Duration : 1h 51mn
Overall bit rate : 1 415 Kbps

Video
Codec ID/Hint : XviD
Duration : 1h 51mn
Bit rate : 958 Kbps
Width : 720 pixels
Height : 384 pixels
Display aspect ratio : 1.875
Frame rate : 23.976 fps
Color space : YUV
Chroma subsampling : 4:2:0
Bit depth : 8 bits
Scan type : Progressive
Bits/(Pixel*Frame) : 0.144
Stream size : 762 MiB (68%)
Writing library : XviD 1.2.1 

Audio
ID : 1
Format : AC-3
Format/Info : Audio Coding 3
Mode extension : CM (complete main)
Codec ID : 2000
Duration : 1h 51mn
Bit rate mode : Constant
Bit rate : 448 Kbps
Channel(s) : 6 channels
Channel positions : Front: L C R, Side: L R, LFE
Sampling rate : 48.0 KHz
Bit depth : 16 bits
Stream size : 357 MiB (32%)
Alignment : Split accross interleaves
Interleave, duration : 42 ms (1.00 video frame)
Interleave, preload duration : 500 ms



Plot:
Fate brings two diversely different women together, and sets them on a collision course that will shatter their preconceived notions about love, life and the power of one's soul.





================================== 
http://thepiratebay.org/user/hiest
==================================





Screen Shots:
 
http://www.postimg.com/29000/28890.jpg
 
http://www.postimg.com/29000/28891.jpg
 
http://www.postimg.com/29000/28892.jpg
 
http://www.postimg.com/29000/28893.jpg
 
http://www.postimg.com/29000/28894.jpg


######## ######## ######## ##               ######## ########  ######## ######## 
##       ##       ##       ##               ##       ##     ## ##       ##       
##       ##       ##       ##               ##       ##     ## ##       ##       
######   ######   ######   ##       ####### ######   ########  ######   ######   
##       ##       ##       ##               ##       ##   ##   ##       ##       
##       ##       ##       ##               ##       ##    ##  ##       ##       
##       ######## ######## ########         ##       ##     ## ######## ######## 
